<?xml version="1.0" encoding="UTF-8" standalone="no"?>
<!-- Created with Inkscape (http://www.inkscape.org/) -->

<svg
   version="1.1"
   id="svg1"
   width="1631.3259"
   height="709.42236"
   viewBox="0 0 1631.3259 709.42237"
   sodipodi:docname="logo-championnat-france-2026.svg"
   xml:space="preserve"
   inkscape:version="1.4.3 (0d15f75, 2025-12-25)"
   xmlns:inkscape="http://www.inkscape.org/namespaces/inkscape"
   xmlns:sodipodi="http://sodipodi.sourceforge.net/DTD/sodipodi-0.dtd"
   xmlns="http://www.w3.org/2000/svg"
   xmlns:svg="http://www.w3.org/2000/svg"><defs
     id="defs1"><clipPath
       clipPathUnits="userSpaceOnUse"
       id="clipPath108"><path
         d="M 0,0 H 841.89 V 1190.551 H 0 Z"
         transform="translate(-415.20721,-610.09832)"
         id="path108" /></clipPath><clipPath
       clipPathUnits="userSpaceOnUse"
       id="clipPath113"><path
         d="M 0,0 H 841.89 V 1190.551 H 0 Z"
         transform="translate(-356.51661,-609.71812)"
         id="path113" /></clipPath><clipPath
       clipPathUnits="userSpaceOnUse"
       id="clipPath124"><path
         d="M 0,0 H 841.89 V 1190.551 H 0 Z"
         transform="translate(-492.55551,-659.57752)"
         id="path124" /></clipPath></defs><sodipodi:namedview
     id="namedview1"
     pagecolor="#ffffff"
     bordercolor="#000000"
     borderopacity="0.25"
     inkscape:showpageshadow="2"
     inkscape:pageopacity="0.0"
     inkscape:pagecheckerboard="0"
     inkscape:deskcolor="#d1d1d1"
     inkscape:zoom="0.19813721"
     inkscape:cx="-454.23068"
     inkscape:cy="-239.73286"
     inkscape:window-width="1920"
     inkscape:window-height="1009"
     inkscape:window-x="-8"
     inkscape:window-y="-8"
     inkscape:window-maximized="1"
     inkscape:current-layer="g2" /><g
     inkscape:groupmode="layer"
     inkscape:label="Image"
     id="g1"
     transform="translate(-1937.551,-1342.8111)"><g
       id="g10"><g
         id="g9"><g
           id="g1794"
           transform="matrix(1.3333333,0,0,-1.3333333,519.26623,2201.2771)"><g
             id="g2016"
             transform="rotate(-4.5,-6630.3477,-35.71023)"
             style="fill:#ffffff"><g
               id="g1944"
               style="fill:#ffffff"><g
                 id="g1942"
                 style="fill:#ffffff" /></g></g><g
             id="g2"
             transform="matrix(2.5698217,0,0,2.5698217,-1669.8407,-1010.7291)"><g
               id="g100"
               transform="matrix(0.75000002,0,0,-0.75000002,880.8193,1110.5544)"
               style="fill:#ffffff"><path
                 id="path101"
                 d="M 1.0300531,0.00129531 H 26.694116 V -6.5963609 H 12.104272 v -0.046875 c 2.34375,-2.5664063 6.082031,-4.7695311 9.023437,-7.1953121 3,-2.296875 5.566407,-4.910157 5.566407,-9.585938 0,-5.941406 -4.113282,-10.664062 -12.246094,-10.664062 -5.3320314,0 -8.9296876,1.875 -10.8515626,4.722656 -1.4882813,2.203125 -2.1445313,4.535156 -2.1445313,8.320312 h 7.6640625 c 0,-2.332031 0.515625,-3.878906 1.5468754,-5.039062 0.84375,-0.9375 2.050781,-1.40625 3.597656,-1.40625 2.847656,0 4.300781,1.734375 4.300781,4.347656 0,1.5 -0.703125,2.660156 -1.875,3.785156 -2.613281,2.53125 -6.539062,4.957032 -9.7148436,7.710938 -3.28125,2.7656248 -5.8476563,5.9414061 -5.9414063,11.64843731 z M 44.93728,-5.7994859 c -4.535157,0 -6.410157,-4.3476561 -6.410157,-10.8867191 0,-6.503906 1.875,-10.945312 6.410157,-10.945312 4.441406,0 6.351562,4.441406 6.351562,10.945312 0,6.585938 -1.863281,10.8867191 -6.351562,10.8867191 z m -0.04687,6.59765621 c 8.976562,0 14.8125,-6.83203121 14.8125,-17.48437531 0,-10.664062 -5.789063,-17.449218 -14.765625,-17.449218 -8.800782,0 -14.824219,6.785156 -14.824219,17.449218 0,10.6523441 5.976562,17.48437531 14.777344,17.48437531 z m 17.25,-0.796875 H 87.804467 V -6.5963609 H 73.214623 v -0.046875 c 2.34375,-2.5664063 6.082032,-4.7695311 9.023438,-7.1953121 3,-2.296875 5.566406,-4.910157 5.566406,-9.585938 0,-5.941406 -4.113281,-10.664062 -12.246094,-10.664062 -5.332031,0 -8.929687,1.875 -10.851562,4.722656 -1.488281,2.203125 -2.144531,4.535156 -2.144531,8.320312 h 7.664062 c 0,-2.332031 0.515625,-3.878906 1.546875,-5.039062 0.84375,-0.9375 2.050781,-1.40625 3.597656,-1.40625 2.847657,0 4.300782,1.734375 4.300782,4.347656 0,1.5 -0.703125,2.660156 -1.875,3.785156 -2.613282,2.53125 -6.539063,4.957032 -9.714844,7.710938 -3.28125,2.7656248 -5.847656,5.9414061 -5.941406,11.64843731 z m 43.57618,0.796875 c 7.66406,0 13.27734,-4.81640621 13.27734,-11.92968731 0,-7.195313 -5.61328,-11.871094 -12.02345,-11.871094 -3.64453,0 -5.92968,1.265625 -7.71093,3.222656 h -0.14063 c 0.28125,-5.378906 2.61328,-8.460937 6.73828,-8.460937 2.70703,0 3.87891,1.359375 4.30078,3.082031 h 7.89844 c -1.07812,-5.414062 -5.28516,-8.976562 -12.33984,-8.976562 -4.76953,0 -8.238285,1.59375 -10.664066,4.347656 -2.847656,3.234375 -4.066406,7.863281 -4.019531,13.335937 0.04687,9.9960941 4.863281,17.25000031 14.683597,17.25000031 z m -0.28125,-6.08203121 c -3.46875,0 -5.847665,-2.4726563 -5.847665,-5.8007811 0,-3.363281 2.238285,-5.882813 5.847665,-5.882813 3.41015,0 5.74218,2.566407 5.74218,5.882813 0,3.2343748 -2.3789,5.8007811 -5.74218,5.8007811 z m 0,0"
                 style="fill:#ffffff;fill-opacity:1;fill-rule:nonzero;stroke:none"
                 aria-label="2026"
                 transform="matrix(1.3333333,0,0,1.3333333,318.21253,834.93187)" /></g><g
               id="g101"
               transform="matrix(0.75000002,0,0,-0.75000002,880.8193,1110.5544)"
               style="fill:#000000"><path
                 id="path102"
                 d="M 18.191361,-6.9713609 V -26.506517 h 4.957031 c 5.191406,0 8.132813,3.925781 8.132813,10.007812 0,6.117188 -2.800782,9.5273441 -8.226563,9.5273441 z M 9.9179234,0.00129531 H 23.664017 c 4.207031,0 7.570313,-1.07812501 10.183594,-3.03515621 3.75,-2.859375 5.800781,-7.5820311 5.800781,-13.4648441 0,-10.242187 -6.222656,-16.933593 -15.480469,-16.933593 H 9.9179234 Z m 33.7558596,0 H 51.94722 V -33.432298 h -8.273437 z m 13.605469,0 h 8.273437 V -12.994798 h 13.886719 v -6.691407 H 65.552689 v -6.773437 h 16.59375 v -6.972656 H 57.279252 Z m 28.895507,0 h 8.273438 V -12.994798 h 13.886723 v -6.691407 H 94.448197 v -6.773437 h 16.593753 v -6.972656 H 86.174759 Z m 28.939451,0 h 8.27344 V -33.432298 h -8.27344 z m 28.7461,0.75 c 4.72265,0 8.14453,-1.3125 10.71093,-3.78515621 2.28516,-2.203125 3.78516,-5.2382813 4.01954,-8.5664061 h -8.27344 c -0.375,3.2343748 -2.8125,5.5664061 -6.50391,5.5664061 -4.95703,0 -8.03906,-4.4414061 -8.03906,-10.5585941 0,-6.082031 2.56641,-10.617187 7.99219,-10.617187 3.5625,0 5.89453,2.285156 6.3164,5.285156 h 8.27344 c -0.42187,-3.75 -2.09766,-7.019531 -5.00391,-9.210937 -2.3789,-1.828125 -5.66015,-2.953125 -9.53906,-2.953125 -9.96094,0 -16.45312,7.535156 -16.45312,17.496093 0,9.9960941 6.67968,17.34375031 16.5,17.34375031 z m 32.22363,-0.140625 c 9.30469,0 13.93359,-4.67578121 13.93359,-12.38671831 v -21.65625 h -8.28515 v 21.785156 c 0,3.2812498 -1.81641,5.6132811 -5.64844,5.6132811 -4.07813,0 -5.75391,-2.1914063 -5.75391,-5.4726561 v -21.925781 h -8.27343 v 21.65625 c 0,7.8046871 4.67578,12.38671831 14.02734,12.38671831 z m 19.02832,-0.609375 h 23.28516 V -7.0182359 H 203.3857 V -33.432298 h -8.27344 z m 30.71484,0 h 8.27344 V -26.412767 h 9.82031 v -7.019531 h -27.82031 v 7.019531 h 9.72656 z M 257.75484,-35.072923 h 5.80078 l 4.95703,-6.070313 h -8.74219 z m -9.9961,35.07421831 h 25.61719 V -7.0182359 h -17.34375 v -7.1484371 h 14.63672 v -6.457032 h -14.63672 v -5.976562 h 17.0625 v -6.832031 h -25.33594 z m 0,0"
                 style="fill:#000000;fill-opacity:1;fill-rule:nonzero;stroke:none"
                 aria-label=" DIFFICULTÉ"
                 transform="matrix(1.3333333,0,0,1.3333333,478.60813,834.93187)" /></g><g
               id="g102"
               transform="matrix(0.75000002,0,0,-0.75000002,880.8193,1110.5544)"><path
                 id="path103"
                 d="m 12.293019,0.60822344 c 3.9375,0 6.972656,-1.265625 8.835937,-3.31640624 1.640625,-1.828125 2.390625,-4.265625 2.390625,-7.2539063 V -33.434745 h -8.273437 v 23.285156 c 0,2.4374999 -1.03125,3.9257812 -3.46875,3.9257812 -2.2851565,0 -3.6445315,-1.1601563 -3.6445315,-4.0195312 v -2.753906 H 0.609425 v 2.941406 c 0,6.3632812 3.7851563,10.66406244 11.683594,10.66406244 z m 16.233398,-0.609375 H 54.143605 V -7.0206828 H 36.799855 V -14.16912 h 14.636718 v -6.457032 H 36.799855 v -5.976562 h 17.0625 v -6.832031 H 28.526417 Z m 43.901367,0.609375 c 9.304688,0 13.933594,-4.67578124 13.933594,-12.38671844 v -21.65625 h -8.285156 v 21.785156 c 0,3.2812499 -1.816406,5.6132812 -5.648438,5.6132812 -4.078125,0 -5.753906,-2.1914063 -5.753906,-5.4726562 v -21.925781 h -8.273437 v 21.65625 c 0,7.8046872 4.675781,12.38671844 14.027343,12.38671844 z m 19.028321,-0.609375 h 8.085937 V -15.57537 c 0,-1.160157 -0.09375,-5.472657 -0.09375,-5.472657 h 0.09375 c 0,0 1.816408,3.609375 2.378908,4.5 l 9.82031,16.54687544 h 8.32031 V -33.434745 h -8.08593 v 15.855468 c 0,1.171875 0.0937,5.191407 0.0937,5.191407 h -0.0937 c 0,0 -1.76954,-3.328125 -2.28516,-4.253907 l -9.914063,-16.792968 h -8.320312 z m 33.946285,0 h 25.61719 V -7.0206828 H 133.67583 V -14.16912 h 14.63672 v -6.457032 h -14.63672 v -5.976562 h 17.0625 v -6.832031 h -25.33594 z m 43.19825,0.796875 c 7.71093,0 13.69921,-3.87890624 13.69921,-10.89843744 0,-7.148438 -5.61328,-9.070313 -11.83593,-10.523438 -5.00391,-1.113281 -7.57032,-1.675781 -7.57032,-4.019531 0,-1.863281 1.91016,-3.128906 4.81641,-3.128906 3.08203,0 5.05078,1.453125 5.37891,4.019531 h 8.08593 c -0.32812,-7.007812 -5.9414,-10.289062 -13.18359,-10.289062 -7.48828,0 -13.27734,3.140625 -13.27734,10.289062 0,7.019531 6.11718,8.789063 11.91797,10.148438 4.58203,1.125 7.30078,1.6875 7.30078,4.3476559 0,2.5195313 -2.67188,3.5039063 -5.37891,3.5039063 -3.97266,0 -6.17578,-1.3945313 -6.55078,-4.7695312 h -8.32031 c 0.1875,7.3945312 6.03515,11.32031244 14.91797,11.32031244 z m 0,0"
                 style="fill:#000000;fill-opacity:1;fill-rule:nonzero;stroke:none"
                 aria-label="JEUNES"
                 transform="matrix(1.3333333,0,0,1.3333333,459.37493,897.27107)" /></g><g
               id="g103"
               transform="matrix(0.75000002,0,0,-0.75000002,880.8193,1110.5544)"
               style="fill:#ffffff"><path
                 id="path104"
                 d="M 0,0 V -20.794 L -15.038,0 h -7.521 V -2.337 L -0.32,-32.494 H 7.343 V 0 Z"
                 style="fill:#ffffff;fill-opacity:1;fill-rule:nonzero;stroke:none"
                 transform="matrix(1.3333333,0,0,-1.3333333,677.8448,730.60667)" /></g><g
               id="g104"
               transform="matrix(0.75000002,0,0,-0.75000002,880.8193,1110.5544)"
               style="fill:#ffffff"><path
                 id="path105"
                 d="M 0,0 V -23.654 H 7.289 V -9.813 Z"
                 style="fill:#ffffff;fill-opacity:1;fill-rule:nonzero;stroke:none"
                 transform="matrix(1.3333333,0,0,-1.3333333,647.76573,742.39413)" /></g><g
               id="g105"
               transform="matrix(0.75000002,0,0,-0.75000002,880.8193,1110.5544)"
               style="fill:#ffffff"><path
                 id="path106"
                 d="m 0,0 h -6.818 l -14.385,-32.476 h 8.117 l 2.738,6.678 h 9.846 l -2.49,5.986 h -4.895 l 4.454,10.856 9.792,-23.52 h 8.116 z"
                 style="fill:#ffffff;fill-opacity:1;fill-rule:nonzero;stroke:none"
                 transform="matrix(1.3333333,0,0,-1.3333333,624.1772,730.61733)" /></g><g
               id="g106"
               transform="matrix(0.75000002,0,0,-0.75000002,880.8193,1110.5544)"
               style="fill:#ffffff"><path
                 id="path107"
                 d="m 0,0 v 32.501 h 15.277 c 8.402,0 13.603,-3.715 13.603,-10.354 v -1.673 c 0,-4.177 -2.692,-7.615 -7.708,-8.912 L 30.227,0 H 20.801 L 11.98,11.562 v 4.829 h 3.297 c 4.04,0 6.221,1.437 6.221,4.597 v 0.602 c 0,3.156 -2.181,4.503 -6.221,4.503 H 7.382 V 0 Z"
                 style="fill:#ffffff;fill-opacity:1;fill-rule:nonzero;stroke:none"
                 transform="matrix(1.3333333,0,0,-1.3333333,553.6096,773.9356)"
                 clip-path="url(#clipPath108)" /></g><g
               id="g108"
               transform="matrix(0.75000002,0,0,-0.75000002,880.8193,1110.5544)"
               style="fill:#ffffff"><path
                 id="path109"
                 d="m 0,0 c 8.402,0 14.347,-4.041 14.347,-9.565 v -3.16 H 7.01 v 2.603 c 0,2.274 -2.832,3.76 -7.01,3.76 -4.133,0 -6.966,-1.763 -6.966,-4.969 v -11.098 c 0,-3.248 2.833,-4.967 6.966,-4.967 4.178,0 7.01,1.487 7.01,3.761 v 2.878 h 7.337 v -3.435 c 0,-5.525 -5.945,-9.611 -14.347,-9.611 -8.358,0 -14.394,4.224 -14.394,10.819 v 12.211 C -14.394,-4.179 -8.358,0 0,0"
                 style="fill:#ffffff;fill-opacity:1;fill-rule:nonzero;stroke:none"
                 transform="matrix(1.3333333,0,0,-1.3333333,714.6992,729.7328)" /></g><g
               id="g109"
               transform="matrix(0.75000002,0,0,-0.75000002,880.8193,1110.5544)"
               style="fill:#ffffff"><path
                 id="path110"
                 d="m 0,0 v -6.409 h -17.273 v -6.454 H -2.88 v -6.313 h -14.393 v -6.965 h 17.69 v -6.36 H -24.656 V 0 Z"
                 style="fill:#ffffff;fill-opacity:1;fill-rule:nonzero;stroke:none"
                 transform="matrix(1.3333333,0,0,-1.3333333,774.39293,730.6004)" /></g><g
               id="g110"
               transform="matrix(0.75000002,0,0,-0.75000002,880.8193,1110.5544)"
               style="fill:#ffffff"><path
                 id="path111"
                 d="M 0,0 0.002,6.361 H -24.88 l 0.133,-32.454 h 7.382 v 12.072 H -2.924 V -7.66 H -17.365 V 0 Z"
                 style="fill:#ffffff;fill-opacity:1;fill-rule:nonzero;stroke:none"
                 transform="matrix(1.3333333,0,0,-1.3333333,547.36187,739.1452)" /></g><g
               id="g111"
               transform="matrix(0.75000002,0,0,-0.75000002,880.8193,1110.5544)"
               style="fill:#ffffff"><path
                 id="path112"
                 d="m 0,0 -0.394,1.368 -0.08,0.026 c -0.947,-1.105 -2.341,-1.71 -4.261,-1.71 -4.104,0 -6.103,2.657 -6.103,8.366 0,5.235 1.999,8.208 6.05,8.208 1.5,0 2.841,-0.5 3.893,-1.447 l 0.053,0.053 -0.053,2.104 v 3.5 l 4.079,0.21 V 0 Z m -0.895,11.391 c -0.499,0.71 -1.473,1.21 -2.683,1.21 -2.236,0 -3.051,-1.157 -3.051,-4.735 0,-3.736 0.71,-4.867 3.024,-4.867 1.501,0 2.342,0.684 2.71,1.342 z"
                 style="fill:#ffffff;fill-opacity:1;fill-rule:nonzero;stroke:none"
                 transform="matrix(1.3333333,0,0,-1.3333333,475.35547,774.44253)"
                 clip-path="url(#clipPath113)" /></g><g
               id="g113"
               transform="matrix(0.75000002,0,0,-0.75000002,880.8193,1110.5544)"
               style="fill:#ffffff"><path
                 id="path114"
                 d="m 0,0 c 0,5.077 2.236,8.05 7.023,8.05 4.078,0 6.578,-2.368 6.578,-7.419 0,-0.605 -0.026,-1.368 -0.106,-1.92 H 4.209 c 0.211,-2.657 1.5,-3.657 4.236,-3.657 1.499,0 2.894,0.263 4.261,0.789 l 0.448,-3.288 C 11.812,-8.05 9.97,-8.471 7.944,-8.471 2.447,-8.471 0,-5.577 0,0 M 9.866,1.42 C 9.813,3.762 8.76,4.656 7.05,4.656 5.077,4.656 4.314,3.735 4.13,1.42 Z"
                 style="fill:#ffffff;fill-opacity:1;fill-rule:nonzero;stroke:none"
                 transform="matrix(1.3333333,0,0,-1.3333333,483.1068,763.5336)" /></g><g
               id="g114"
               transform="matrix(0.75000002,0,0,-0.75000002,880.8193,1110.5544)"
               style="fill:#ffffff"><path
                 id="path115"
                 d="m 0,0 c -34.464,0 -62.506,28.036 -62.506,62.502 0,34.463 28.038,62.5 62.499,62.5 16.706,0 32.402,-6.501 44.207,-18.305 C 56.005,94.89 62.503,79.193 62.503,62.497 62.503,28.033 34.466,0 0,0 m 0.002,118.962 c -31.137,0 -56.466,-25.327 -56.466,-56.46 0,-31.135 25.329,-56.466 56.464,-56.466 31.132,0 56.464,25.328 56.464,56.461 0,15.083 -5.872,29.263 -16.535,39.928 -10.666,10.665 -24.845,16.537 -39.927,16.537"
                 style="fill:#ffffff;fill-opacity:1;fill-rule:nonzero;stroke:none"
                 transform="matrix(1.3333333,0,0,-1.3333333,327.2004,790.2752)" /></g><g
               id="g115"
               transform="matrix(0.75000002,0,0,-0.75000002,880.8193,1110.5544)"
               style="fill:#ffffff"><path
                 id="path116"
                 d="m 0,0 h -20.115 l -8.686,-18.547 -18.336,-0.016 -15.285,-32.632 13.079,-13.073 13.548,28.924 0.096,0.229 0.003,-0.01 c 0,0 0.294,0.826 1.172,0.918 0.37,0.039 0.769,-0.09 1.017,-0.334 l 29.289,-29.29 c 0.29,-0.253 0.758,-0.562 1.236,-0.514 0.577,0.063 1.097,0.66 1.095,1.058 v 19.602 l -13.338,13.342 6.548,13.783 c 0,0 0.291,0.808 1.174,0.9 0.366,0.037 0.749,-0.081 1.013,-0.337 l 29.291,-29.287 c 0.287,-0.251 0.758,-0.561 1.23,-0.513 0.582,0.061 1.101,0.511 1.099,1.073 v 19.608 z"
                 style="fill:#ffffff;fill-opacity:1;fill-rule:nonzero;stroke:none"
                 transform="matrix(1.3333333,0,0,-1.3333333,349.50947,649.26187)" /></g><g
               id="g116"
               transform="matrix(0.75000002,0,0,-0.75000002,880.8193,1110.5544)"
               style="fill:#ffffff"><path
                 id="path117"
                 d="m 0,0 22.493,-22.486 c 0.26,-0.249 0.806,-0.673 1.356,-0.616 0.731,0.074 1.134,0.771 1.134,1.215 V -2.499 L 7.003,15.482 Z"
                 style="fill:#ffffff;fill-opacity:1;fill-rule:nonzero;stroke:none"
                 transform="matrix(1.3333333,0,0,-1.3333333,289.53493,740.78)" /></g><g
               id="g117"
               transform="matrix(0.75000002,0,0,-0.75000002,880.8193,1110.5544)"
               style="fill:#ffffff"><path
                 id="path118"
                 d="m 0,0 c -5.956,-0.463 -7.735,1.738 -8.363,9.825 -0.594,7.651 0.678,10.088 6.635,10.551 2.615,0.202 4.977,-0.101 6.862,-0.539 l 0.37,8.407 c -2.242,0.654 -5.681,1.021 -8.539,0.799 -12.057,-0.936 -16.909,-8.084 -15.985,-19.997 1,-12.88 7.046,-18.598 18.232,-17.73 3.148,0.245 6.623,1.294 9.051,2.651 L 6.629,1.83 C 4.757,0.856 2.47,0.192 0,0"
                 style="fill:#ffffff;fill-opacity:1;fill-rule:nonzero;stroke:none"
                 transform="matrix(1.3333333,0,0,-1.3333333,439.48747,691.0244)" /></g><g
               id="g118"
               transform="matrix(0.75000002,0,0,-0.75000002,880.8193,1110.5544)"
               style="fill:#ffffff"><path
                 id="path119"
                 d="m 0,0 c -2.18,-0.169 -4.611,-0.845 -6.663,-2.661 l -0.153,0.085 -0.203,3.882 -0.455,5.859 -9.264,-1.157 2.906,-37.432 9.297,0.722 -1.597,20.58 c 0.699,1.028 2.047,1.864 3.742,1.995 2.47,0.192 3.677,-0.932 3.877,-3.499 l 1.435,-18.498 9.347,0.726 -1.437,18.497 C 10.265,-3.588 6.198,0.481 0,0"
                 style="fill:#ffffff;fill-opacity:1;fill-rule:nonzero;stroke:none"
                 transform="matrix(1.3333333,0,0,-1.3333333,473.65773,658.4916)" /></g><g
               id="g119"
               transform="matrix(0.75000002,0,0,-0.75000002,880.8193,1110.5544)"
               style="fill:#ffffff"><path
                 id="path120"
                 d="m 0,0 c -3.971,-0.308 -7.457,-1.213 -10.407,-2.756 l 1.276,-7.014 c 2.729,1.235 4.628,1.87 7.97,2.129 3.632,0.282 4.985,-0.831 5.154,-3.009 l 0.083,-1.067 c -1.434,0.28 -3.05,0.397 -5.037,0.243 -6.633,-0.516 -10.252,-4.742 -9.831,-10.166 0.516,-6.634 4.258,-9.656 10.02,-9.208 3.147,0.244 5.68,1.513 7.474,3.503 l 0.867,-2.368 7.167,0.556 -1.392,17.917 C 12.708,-3.057 9.345,0.725 0,0 m 1.25,-23.628 c -1.889,-0.146 -3.167,0.632 -3.333,2.763 -0.165,2.13 0.918,3.237 3.388,3.429 1.453,0.113 2.537,-0.047 3.229,-0.189 l 0.233,-3.001 c 0.125,-1.599 -1.532,-2.848 -3.517,-3.002"
                 style="fill:#ffffff;fill-opacity:1;fill-rule:nonzero;stroke:none"
                 transform="matrix(1.3333333,0,0,-1.3333333,507.87787,655.90053)" /></g><g
               id="g120"
               transform="matrix(0.75000002,0,0,-0.75000002,880.8193,1110.5544)"
               style="fill:#ffffff"><path
                 id="path121"
                 d="m 0,0 c -0.872,11.234 -5.107,14.948 -12.467,14.377 -2.42,-0.187 -4.65,-1.016 -6.455,-2.446 l -0.618,7.132 c -0.591,7.603 -5.056,11.154 -11.013,10.691 -3.244,-0.252 -6.018,-1.539 -7.994,-4.323 -1.843,2.39 -4.403,3.361 -7.937,3.086 -2.664,-0.207 -5.244,-1.478 -7.184,-3.481 l -1.648,2.405 -6.652,-0.905 2.282,-29.393 9.297,0.721 -1.598,20.581 c 0.647,1.072 1.858,1.799 3.31,1.912 2.228,0.173 3.469,-0.753 3.668,-3.32 l 1.447,-18.643 9.347,0.726 -1.448,18.643 c -0.187,2.422 0.933,3.677 3.112,3.846 2.179,0.169 3.532,-0.943 3.728,-3.462 l 3.177,-42.837 9.715,0.849 -0.799,9.048 0.141,0.06 c 1.86,-1.366 4.028,-1.685 6.353,-1.504 C -3.361,-15.704 0.789,-10.169 0,0 m -13.33,-9.024 c -1.743,-0.135 -3.018,0.594 -3.882,1.696 L -18.1,4.1 c 0.685,1.223 2.033,2.057 3.679,2.185 3.1,0.24 4.326,-1.125 4.78,-6.985 0.519,-6.682 -1.074,-8.121 -3.689,-8.324"
                 style="fill:#ffffff;fill-opacity:1;fill-rule:nonzero;stroke:none"
                 transform="matrix(1.3333333,0,0,-1.3333333,612.84773,690.52067)" /></g><g
               id="g121"
               transform="matrix(0.75000002,0,0,-0.75000002,880.8193,1110.5544)"
               style="fill:#ffffff"><path
                 id="path122"
                 d="M 0,0 -2.278,29.345 7.227,30.521 9.539,0.741 Z"
                 style="fill:#ffffff;fill-opacity:1;fill-rule:nonzero;stroke:none"
                 transform="matrix(1.3333333,0,0,-1.3333333,619.80573,709.92147)" /></g><g
               id="g122"
               transform="matrix(0.75000002,0,0,-0.75000002,880.8193,1110.5544)"
               style="fill:#ffffff"><path
                 id="path123"
                 d="m 0,0 c -9.685,-0.752 -14.344,3.418 -15.187,14.264 -0.842,10.847 3.155,15.835 12.84,16.586 C 7.387,31.606 11.96,27.284 12.802,16.437 13.645,5.59 9.782,0.76 0,0 m -0.516,7.268 c 3.197,0.248 4.189,1.884 3.683,8.421 -0.515,6.634 -1.743,8 -4.938,7.752 C -5.015,23.19 -6.017,21.65 -5.502,15.016 -4.99,8.431 -3.711,7.019 -0.516,7.268"
                 style="fill:#ffffff;fill-opacity:1;fill-rule:nonzero;stroke:none"
                 transform="matrix(1.3333333,0,0,-1.3333333,656.74067,707.96333)"
                 clip-path="url(#clipPath124)" /></g><g
               id="g124"
               transform="matrix(0.75000002,0,0,-0.75000002,880.8193,1110.5544)"
               style="fill:#ffffff"><path
                 id="path125"
                 d="m 0,0 -1.437,18.498 c -0.21,2.712 -1.503,3.684 -3.877,3.499 -1.548,-0.12 -3,-0.866 -3.741,-1.995 l 1.598,-20.581 -9.298,-0.721 -2.286,29.442 6.653,0.905 1.487,-2.223 c 2.044,1.914 4.733,3.048 7.639,3.273 C 2.984,30.582 7.326,26.729 7.909,19.224 L 9.345,0.726 Z"
                 style="fill:#ffffff;fill-opacity:1;fill-rule:nonzero;stroke:none"
                 transform="matrix(1.3333333,0,0,-1.3333333,702.2496,703.52107)" /></g><g
               id="g125"
               transform="matrix(0.75000002,0,0,-0.75000002,880.8193,1110.5544)"
               style="fill:#ffffff"><path
                 id="path126"
                 d="m 0,0 -1.436,18.498 c -0.21,2.712 -1.504,3.683 -3.877,3.499 -1.549,-0.12 -3.002,-0.866 -3.742,-1.995 l 1.598,-20.581 -9.298,-0.722 -2.285,29.443 6.651,0.905 1.49,-2.223 c 2.043,1.914 4.733,3.048 7.637,3.274 C 2.985,30.582 7.326,26.729 7.91,19.224 L 9.345,0.726 Z"
                 style="fill:#ffffff;fill-opacity:1;fill-rule:nonzero;stroke:none"
                 transform="matrix(1.3333333,0,0,-1.3333333,742.85693,700.3684)" /></g><g
               id="g126"
               transform="matrix(0.75000002,0,0,-0.75000002,880.8193,1110.5544)"
               style="fill:#ffffff"><path
                 id="path127"
                 d="m 0,0 c -1.793,-1.991 -4.327,-3.259 -7.474,-3.503 -5.762,-0.448 -9.504,2.574 -10.019,9.208 -0.421,5.424 3.196,9.65 9.831,10.165 1.985,0.155 3.602,0.037 5.036,-0.241 l -0.082,1.065 c -0.17,2.179 -1.522,3.292 -5.155,3.01 -3.342,-0.259 -5.24,-0.894 -7.971,-2.129 l -1.274,7.013 c 2.948,1.544 6.436,2.448 10.406,2.757 C 2.644,28.07 6.007,24.289 6.642,16.105 L 8.033,-1.812 0.866,-2.369 Z m -2.167,9.721 c -0.694,0.141 -1.778,0.301 -3.231,0.188 -2.47,-0.192 -3.552,-1.3 -3.386,-3.43 0.166,-2.13 1.444,-2.908 3.332,-2.762 1.985,0.154 3.642,1.403 3.519,3.002 z"
                 style="fill:#ffffff;fill-opacity:1;fill-rule:nonzero;stroke:none"
                 transform="matrix(1.3333333,0,0,-1.3333333,782.116,694.072)" /></g><g
               id="g127"
               transform="matrix(0.75000002,0,0,-0.75000002,880.8193,1110.5544)"
               style="fill:#ffffff"><path
                 id="path128"
                 d="m 0,0 1.056,-13.607 c 0.146,-1.888 1.131,-2.64 3.26,-2.475 0.727,0.057 1.732,0.281 2.251,0.516 l 0.986,-6.452 c -1.023,-0.615 -3.22,-1.175 -5.546,-1.356 -6.488,-0.503 -9.829,2.989 -10.28,8.799 l -1.075,13.85 -2.807,-0.219 -0.523,6.732 3.293,0.255 1.012,6.412 7.313,1.2 0.537,-6.924 6.149,0.477 0.523,-6.73 z"
                 style="fill:#ffffff;fill-opacity:1;fill-rule:nonzero;stroke:none"
                 transform="matrix(1.3333333,0,0,-1.3333333,810.14627,664.42093)" /></g><g
               id="g128"
               transform="matrix(0.75000002,0,0,-0.75000002,880.8193,1110.5544)"
               style="fill:#ffffff"><path
                 id="path129"
                 d="m 0,0 c 0,-6.345 5.144,-11.489 11.489,-11.489 6.345,0 11.488,5.144 11.488,11.489 0,6.345 -5.143,11.489 -11.488,11.489 C 5.144,11.489 0,6.345 0,0"
                 style="fill:#ffffff;fill-opacity:1;fill-rule:nonzero;stroke:none"
                 transform="matrix(1.3333333,0,0,-1.3333333,604.8508,637.59173)" /></g><g
               id="g129"
               transform="matrix(0.75000002,0,0,-0.75000002,880.8193,1110.5544)"
               style="fill:#ffffff"><path
                 id="path130"
                 d="m 0,0 c 0,0 1.333,0.285 1.627,-0.051 0.293,-0.337 2.023,-3.311 2.301,-3.821 0.277,-0.51 5.113,-5.586 5.184,-5.757 0.071,-0.17 0.206,0.311 0.206,0.311 0,0 -1.629,6.942 -1.57,7.746 0.058,0.804 0.172,1.263 1.034,2.637 0.863,1.374 7.701,5.478 8.214,5.574 1.141,0.214 1.742,-0.231 2.173,-0.184 0.075,0.008 0.306,0.056 0.442,0.384 0.49,1.176 1.61,3.56 1.743,4.07 0.172,0.656 -0.203,4.168 -0.016,5.417 0.188,1.249 0.772,2.714 0.772,2.714 l -0.197,0.687 -3.173,8.969 c 0,0 -0.542,1.541 -0.807,1.987 -0.221,0.373 -2.295,1.198 -2.259,1.395 0.037,0.196 1.259,0.239 1.377,0.308 0.116,0.069 0.097,0.243 0.055,0.565 -0.044,0.345 -0.515,2.041 -0.713,2.435 -0.198,0.394 -0.773,1.035 -0.634,1.094 0.179,0.076 0.427,0.177 0.716,-0.04 0.29,-0.217 0.813,-0.926 0.813,-0.926 0,0 0.992,-0.474 1.108,-0.719 0.118,-0.245 1.33,-3.616 1.572,-4.041 0.242,-0.425 2.515,-4.062 3.189,-5.382 0.675,-1.32 1.713,-4.046 1.753,-4.587 0.04,-0.54 -0.19,-1.069 -0.19,-1.069 0,0 0.303,-3.391 0.626,-6.457 0.324,-3.066 -0.07,-6.059 0.02,-7.4 0.09,-1.34 1.123,-5.476 1.123,-5.476 0,0 1.066,-4.949 1.301,-5.307 0.127,-0.191 0.557,-0.728 1.287,-1.158 0.731,-0.429 1.835,-0.727 2.161,-0.759 0.326,-0.032 4.071,0.425 4.071,0.425 0,0 4.972,0.975 8.191,1.239 3.219,0.264 9.016,-0.032 9.016,-0.032 0,0 1.757,-1.611 1.386,-2.465 -0.401,-0.925 -4.412,-6.461 -4.412,-6.461 0,0 -0.069,-0.186 0.003,-0.4 0.073,-0.215 0.401,-0.312 0.401,-0.312 l 3.673,0.031 c 0,0 0.788,-0.254 0.706,-0.994 -0.083,-0.739 -1.668,-1.878 -1.668,-1.878 0,0 -6.223,-1.756 -6.72,-1.795 -0.101,-0.008 -0.463,-0.164 -0.825,0.014 -0.36,0.179 -0.759,0.437 -0.862,0.512 -0.156,0.114 -0.399,0.864 -0.134,1.35 0.265,0.486 1.343,0.632 1.534,1.061 0.075,0.169 1.338,4.175 1.243,5.656 -0.036,0.118 -0.224,0.22 -0.353,0.183 -0.129,-0.037 -7.807,-2.927 -9.086,-3.525 -1.28,-0.597 -2.738,-2.263 -2.943,-2.616 -0.204,-0.354 -0.223,-1.384 -0.037,-2.039 0.185,-0.654 2.739,-7.694 2.949,-8.11 0.209,-0.415 0.831,-1.257 1.047,-1.448 0.201,-0.177 0.369,-0.334 0.567,-0.402 0.197,-0.069 3.936,-0.08 3.936,-0.08 l 3.655,0.193 0.863,1.06 c 0,0 0.58,0.442 1.313,-0.074 0.734,-0.516 1.527,-2.436 2.12,-3.014 0.528,-0.512 1.818,-1.161 2.219,-1.472 0.401,-0.311 1.513,-1.735 1.513,-1.735 0,0 0.238,-0.631 -0.013,-0.899 -0.25,-0.269 -1.031,-0.86 -1.918,-0.891 -0.888,-0.031 -2.067,0.545 -2.738,1.15 -0.672,0.605 -3.348,3.383 -3.348,3.383 0,0 -4.129,-1.834 -5.892,-2.221 -0.55,-0.12 -3.294,-0.006 -3.737,0.271 -0.443,0.277 -6.615,6.367 -8.771,8.524 -2.155,2.157 -6.031,6.399 -6.332,6.963 -0.302,0.563 -0.544,2.549 -0.976,3.747 -0.432,1.198 -7.25,6.552 -7.624,6.712 -0.375,0.16 -0.546,0.111 -0.546,0.111 l -0.374,-6.688 c 0,0 -0.872,-1.699 -1.503,-1.613 -0.632,0.087 -4.177,3.56 -4.737,4.711 -0.56,1.15 -2.193,3.846 -3.36,4.996 -0.579,1.043 -3.649,2.106 -3.649,2.106 0,0 1.119,0.222 1.781,1.123 C 1.88,-1.105 0,0 0,0"
                 style="fill:#ffffff;fill-opacity:1;fill-rule:nonzero;stroke:none"
                 transform="matrix(1.3333333,0,0,-1.3333333,805.71893,738.68893)" /></g><g
               id="g130"
               transform="matrix(0.75000002,0,0,-0.75000002,880.8193,1110.5544)"
               style="fill:#ffffff"><path
                 id="path131"
                 d="m 0,0 c -1.204,0.227 -1.978,0.169 -3.395,-0.436 -1.279,-0.548 -1.944,-1.809 -2.196,-2.663 -0.258,-0.659 -0.495,-2.038 -0.072,-2.906 0.747,-1.535 2.153,-3.104 2.677,-4.053 0.317,-0.573 1.525,-1.427 2.088,-1.459 0.717,-0.04 1.546,0.253 1.992,0.878 0.613,0.86 1.566,2.857 1.913,3.961 0.351,1.117 0.16,2.238 0.16,2.238 0,0 -0.27,1.529 -0.899,2.785 C 1.905,-0.93 0.872,-0.164 0,0"
                 style="fill:#ffffff;fill-opacity:1;fill-rule:nonzero;stroke:none"
                 transform="matrix(1.3333333,0,0,-1.3333333,823.39813,715.4188)" /></g></g></g></g></g></g></svg>
